# xmcd
#
# Track frame offsets: 
#        150
#        24348
#        47666
#        64732
#        84172
#        104135
#        123970
#        152217
#        173772
#        192369
#
# Disc length: 2840 seconds
#
# Revision: 0
# Processed by: cddbd v1.5.2PL0 Copyright (c) Steve Scherf et al.
# Submitted via: ExactAudioCopy v0.99pb5
#
DISCID=7c0b160a
DTITLE=Michael Tracy - Got To Get Away
DYEAR=2009
DGENRE=Blues
TTITLE0=Shake That Thang
TTITLE1=Nothin' But The Blues Could Pick Me Up
TTITLE2=Got To Get Away
TTITLE3=Scratch My Back (Revised)
TTITLE4=Big Bullfrog and A Dragonfly
TTITLE5=On My Mind
TTITLE6=Ain't Nobody's Business
TTITLE7=I Don't Care What You Do As Long As I'm With You
TTITLE8=Fool To Let Her Go
TTITLE9=Heavy Heart
EXTD=
EXTT0=
EXTT1=
EXTT2=
EXTT3=
EXTT4=
EXTT5=
EXTT6=
EXTT7=
EXTT8=
EXTT9=
PLAYORDER=
